<svg xmlns="http://www.w3.org/2000/svg" width="912" height="677" fill="none" viewBox="0 0 912 677"><path stroke="#D9D9D9" stroke-linejoin="round" stroke-width="1.4" d="m1 624 138.579-85.673c38.396-23.738 57.095-69.534 46.286-113.362l-7.259-29.435c-11.731-47.568 11.329-96.873 55.357-118.363l16.518-8.063a104 104 0 0 0 49.405-51.191l13.928-31.311c19.481-43.793 66.368-68.6 113.533-60.07l131.245 23.738c45.081 8.154 90.189-14.152 111.074-54.928l13.108-25.591c21.151-41.295 67.097-63.585 112.622-54.637L863.5 28.5"/><path stroke="#D9D9D9" stroke-linejoin="round" stroke-width="1.4" d="m25 650 138.579-85.673c38.396-23.738 57.095-69.534 46.286-113.362l-7.259-29.435c-11.731-47.568 11.329-96.873 55.357-118.363l16.518-8.063a104 104 0 0 0 49.405-51.191l13.928-31.311c19.481-43.793 66.368-68.6 113.533-60.07l131.245 23.738c45.081 8.154 90.189-14.152 111.074-54.928l13.108-25.591c21.151-41.295 67.097-63.585 112.622-54.637L887.5 54.5"/><path stroke="#D9D9D9" stroke-linejoin="round" stroke-width="1.4" d="m49 676 138.579-85.673c38.396-23.738 57.095-69.534 46.286-113.362l-7.259-29.435c-11.731-47.568 11.329-96.873 55.357-118.363l16.518-8.063a104 104 0 0 0 49.405-51.191l13.928-31.311c19.481-43.793 66.368-68.6 113.533-60.07l131.245 23.738c45.081 8.154 90.189-14.152 111.074-54.928l13.108-25.592c21.151-41.294 67.097-63.584 112.622-54.636L911.5 80.5"/></svg>