<svg width="56" height="56" viewBox="0 0 56 56" fill="none" xmlns="http://www.w3.org/2000/svg">
<path d="M55.1672 27.8308C55.1672 23.824 55.167 20.841 55.0212 18.4592C54.8756 16.0813 54.5861 14.3349 54.0218 12.7988C52.132 7.65476 48.0778 3.60056 42.9337 1.71072C41.3976 1.1464 39.6513 0.856964 37.2733 0.711366C34.8915 0.565533 31.9086 0.565317 27.9017 0.565317C23.8948 0.565317 20.9119 0.565533 18.5301 0.711366C16.1522 0.856964 14.4058 1.1464 12.8697 1.71072C7.72563 3.60056 3.67143 7.65476 1.78159 12.7988C1.21727 14.3349 0.927837 16.0813 0.782238 18.4592C0.636406 20.841 0.636189 23.824 0.636189 27.8308C0.636189 31.8377 0.636406 34.8206 0.782238 37.2024C0.927837 39.5804 1.21727 41.3268 1.78159 42.8628C3.67143 48.0069 7.72563 52.0611 12.8697 53.951C14.4058 54.5153 16.1522 54.8047 18.5301 54.9503C20.9119 55.0961 23.8948 55.0964 27.9017 55.0964C31.9086 55.0964 34.8915 55.0961 37.2733 54.9503C39.6513 54.8047 41.3976 54.5153 42.9337 53.951C48.0778 52.0611 52.132 48.0069 54.0218 42.8628C54.5861 41.3268 54.8756 39.5804 55.0212 37.2024C55.167 34.8206 55.1672 31.8377 55.1672 27.8308Z" stroke="url(#paint0_linear_201_151)" stroke-width="0.991473"/>
<path d="M16.004 27.3351C15.7302 27.3351 15.5082 27.557 15.5082 27.8308C15.5082 28.1046 15.7302 28.3265 16.004 28.3265V27.3351ZM39.4889 28.1813C39.6825 27.9878 39.6825 27.6739 39.4889 27.4803L36.334 24.3254C36.1404 24.1318 35.8266 24.1318 35.633 24.3254C35.4394 24.519 35.4394 24.8329 35.633 25.0265L38.4373 27.8308L35.633 30.6351C35.4394 30.8287 35.4394 31.1426 35.633 31.3362C35.8266 31.5298 36.1404 31.5298 36.334 31.3362L39.4889 28.1813ZM16.004 28.3265H39.1383V27.3351H16.004V28.3265Z" fill="url(#paint1_linear_201_151)"/>
<defs>
<linearGradient id="paint0_linear_201_151" x1="0.140451" y1="36.3852" x2="42.3585" y2="38.449" gradientUnits="userSpaceOnUse">
<stop stop-color="#237249"/>
<stop offset="1" stop-color="#35C66B"/>
</linearGradient>
<linearGradient id="paint1_linear_201_151" x1="39.1383" y1="28.4849" x2="31.4011" y2="37.235" gradientUnits="userSpaceOnUse">
<stop stop-color="#237249"/>
<stop offset="1" stop-color="#35C66B"/>
</linearGradient>
</defs>
</svg>
