<svg xmlns="http://www.w3.org/2000/svg" width="809" height="677" fill="none" viewBox="0 0 809 677"><path stroke="#D9D9D9" stroke-linejoin="round" stroke-width="1.4" d="m.996 624.001 138.579-85.674c38.396-23.737 57.095-69.533 46.287-113.361l-7.259-29.436c-11.731-47.568 11.328-96.873 55.356-118.363l16.519-8.062a104 104 0 0 0 49.404-51.192l13.928-31.311c19.481-43.792 66.368-68.6 113.533-60.069l131.245 23.738c45.082 8.154 90.189-14.153 111.075-54.928L682.77 69.75c21.151-41.295 67.097-63.584 112.623-54.636L863.496 28.5"/><path stroke="#D9D9D9" stroke-linejoin="round" stroke-width="1.4" d="m24.996 650.001 138.579-85.674c38.396-23.737 57.095-69.533 46.287-113.361l-7.259-29.436c-11.731-47.568 11.328-96.873 55.356-118.363l16.519-8.062a104 104 0 0 0 49.404-51.192l13.928-31.311c19.481-43.792 66.368-68.6 113.533-60.069l131.245 23.738c45.082 8.154 90.189-14.153 111.075-54.928l13.107-25.592c21.151-41.295 67.097-63.584 112.623-54.636L887.496 54.5"/><path stroke="#D9D9D9" stroke-linejoin="round" stroke-width="1.4" d="m48.996 676.001 138.579-85.674c38.396-23.737 57.095-69.533 46.287-113.361l-7.259-29.436c-11.731-47.568 11.328-96.873 55.356-118.363l16.519-8.062a104 104 0 0 0 49.404-51.192l13.928-31.311c19.481-43.792 66.368-68.6 113.533-60.069l131.245 23.738c45.082 8.154 90.189-14.153 111.075-54.928l13.107-25.592c21.151-41.295 67.097-63.584 112.623-54.636L911.496 80.5"/></svg>