<svg width="260" height="259" viewBox="0 0 260 259" fill="none" xmlns="http://www.w3.org/2000/svg">
<g filter="url(#filter0_d_8_10)">
<path d="M174.37 63.006C181.304 61.0297 188.041 66.6825 187.298 73.8539C186.724 79.4044 190.721 84.3844 196.264 85.0248C203.426 85.8523 207.487 93.6528 204.057 99.9944C201.402 104.902 203.189 111.033 208.065 113.746C214.365 117.251 215.132 126.012 209.536 130.558C205.205 134.077 204.51 140.424 207.976 144.797C212.456 150.446 209.811 158.833 202.901 160.892C197.554 162.485 194.482 168.084 196.012 173.45C197.988 180.384 192.335 187.12 185.164 186.378C179.614 185.804 174.634 189.8 173.993 195.344C173.166 202.506 165.365 206.566 159.024 203.136C154.115 200.481 147.985 202.268 145.272 207.144C141.767 213.445 133.006 214.211 128.46 208.615C124.941 204.284 118.594 203.589 114.221 207.056C108.572 211.535 100.185 208.891 98.126 201.981C96.5327 196.633 90.9343 193.562 85.5679 195.092C78.6343 197.068 71.8976 191.415 72.6399 184.244C73.2144 178.693 69.2175 173.713 63.6743 173.073C56.5121 172.245 52.4515 164.445 55.8817 158.103C58.5365 153.195 56.7496 147.065 51.8735 144.352C45.5732 140.846 44.8067 132.086 50.4026 127.54C54.7336 124.021 55.4288 117.673 51.962 113.301C47.4827 107.651 50.1271 99.2642 57.0368 97.2056C62.3846 95.6123 65.456 90.0139 63.9264 84.6476C61.95 77.714 67.6028 70.9772 74.7743 71.7195C80.3247 72.2941 85.3047 68.2972 85.9452 62.754C86.7727 55.5918 94.5732 51.5311 100.915 54.9613C105.823 57.6162 111.953 55.8293 114.666 50.9531C118.172 44.6528 126.932 43.8863 131.478 49.4822C134.997 53.8132 141.345 54.5084 145.717 51.0416C151.367 46.5623 159.754 49.2068 161.812 56.1165C163.406 61.4642 169.004 64.5356 174.37 63.006Z" fill="url(#paint0_linear_8_10)"/>
</g>
<path d="M80.0104 150.141L79.0081 146.4L91.5814 116.798L97.3529 115.251L84.9399 144.81L81.9854 144.686L111.858 136.681L113.09 141.277L80.0104 150.141ZM103.262 153.762L100.799 144.57L99.7275 139.932L97.5509 131.809L102.574 130.463L108.445 152.373L103.262 153.762ZM129.293 147.245C126.656 147.952 123.982 148.229 121.268 148.078C118.59 147.917 116.281 147.352 114.342 146.383L115.669 141.502C117.231 142.344 119.109 142.872 121.305 143.085C123.5 143.299 125.72 143.105 127.965 142.503C130.815 141.74 132.844 140.547 134.051 138.925C135.259 137.303 135.59 135.477 135.046 133.446C134.674 132.057 134.011 130.936 133.057 130.084C132.103 129.233 130.718 128.764 128.9 128.678C127.108 128.547 124.77 128.868 121.884 129.642L113.387 131.918L110.123 111.83L131.232 106.173L132.478 110.823L113.347 115.949L115.424 112.586L118.012 128.445L114.546 126.625L121.76 124.692C125.501 123.689 128.641 123.364 131.178 123.715C133.716 124.066 135.731 124.958 137.222 126.391C138.704 127.789 139.741 129.592 140.333 131.801C140.906 133.938 140.914 136.036 140.358 138.094C139.793 140.117 138.602 141.944 136.787 143.576C134.997 145.163 132.499 146.386 129.293 147.245ZM150.792 141.026L166.313 96.7736L170.428 95.671L154.907 139.924L150.792 141.026ZM149.145 122.91C147.435 123.368 145.807 123.346 144.259 122.844C142.712 122.342 141.359 121.426 140.201 120.094C139.077 118.753 138.244 117.067 137.7 115.037C137.156 113.006 137.035 111.129 137.337 109.406C137.674 107.674 138.388 106.204 139.477 104.995C140.566 103.787 141.965 102.954 143.676 102.496C145.421 102.028 147.05 102.05 148.562 102.561C150.109 103.063 151.444 103.984 152.567 105.325C153.69 106.666 154.524 108.352 155.068 110.383C155.612 112.414 155.733 114.291 155.431 116.013C155.129 117.736 154.433 119.202 153.344 120.41C152.291 121.609 150.891 122.442 149.145 122.91ZM148.329 119.864C149.968 119.425 151.084 118.457 151.676 116.962C152.258 115.432 152.249 113.544 151.648 111.299C151.046 109.055 150.115 107.433 148.855 106.435C147.585 105.4 146.131 105.103 144.492 105.542C142.889 105.971 141.778 106.956 141.16 108.497C140.567 109.992 140.572 111.861 141.173 114.106C141.765 116.315 142.696 117.936 143.966 118.971C145.272 119.996 146.726 120.293 148.329 119.864ZM177.545 134.202C175.835 134.66 174.206 134.638 172.659 134.136C171.111 133.634 169.776 132.713 168.653 131.372C167.53 130.031 166.697 128.345 166.153 126.314C165.608 124.283 165.487 122.407 165.789 120.684C166.091 118.961 166.787 117.495 167.876 116.287C168.965 115.079 170.365 114.246 172.075 113.787C173.821 113.32 175.449 113.341 176.961 113.853C178.508 114.355 179.843 115.276 180.966 116.617C182.125 117.949 182.976 119.63 183.521 121.66C184.065 123.691 184.168 125.573 183.83 127.305C183.528 129.028 182.833 130.494 181.744 131.702C180.69 132.901 179.291 133.734 177.545 134.202ZM176.729 131.155C178.332 130.726 179.429 129.764 180.022 128.268C180.64 126.728 180.648 124.836 180.047 122.591C179.455 120.382 178.506 118.766 177.201 117.741C175.931 116.706 174.494 116.404 172.891 116.834C171.288 117.263 170.177 118.248 169.559 119.788C168.967 121.283 168.971 123.153 169.573 125.398C170.174 127.642 171.11 129.282 172.38 130.316C173.676 131.305 175.125 131.585 176.729 131.155Z" fill="white"/>
<defs>
<filter id="filter0_d_8_10" x="15.597" y="34.7617" width="219.615" height="219.615" filterUnits="userSpaceOnUse" color-interpolation-filters="sRGB">
<feFlood flood-opacity="0" result="BackgroundImageFix"/>
<feColorMatrix in="SourceAlpha" type="matrix" values="0 0 0 0 0 0 0 0 0 0 0 0 0 0 0 0 0 0 127 0" result="hardAlpha"/>
<feOffset dx="-4.5648" dy="15.5203"/>
<feGaussianBlur stdDeviation="13.2379"/>
<feComposite in2="hardAlpha" operator="out"/>
<feColorMatrix type="matrix" values="0 0 0 0 0.0775104 0 0 0 0 0.241623 0 0 0 0 0.157958 0 0 0 0.46 0"/>
<feBlend mode="normal" in2="BackgroundImageFix" result="effect1_dropShadow_8_10"/>
<feBlend mode="normal" in="SourceGraphic" in2="effect1_dropShadow_8_10" result="shape"/>
</filter>
<linearGradient id="paint0_linear_8_10" x1="181.996" y1="209.55" x2="70.9079" y2="125.226" gradientUnits="userSpaceOnUse">
<stop stop-color="#237249"/>
<stop offset="1" stop-color="#35C66B"/>
</linearGradient>
</defs>
</svg>
