<svg width="221" height="221" viewBox="0 0 221 221" fill="none" xmlns="http://www.w3.org/2000/svg">
<g filter="url(#filter0_d_8_11)">
<path d="M159.37 29.006C166.304 27.0297 173.041 32.6825 172.298 39.8539C171.724 45.4044 175.721 50.3844 181.264 51.0248C188.426 51.8523 192.487 59.6528 189.057 65.9944C186.402 70.9024 188.189 77.0329 193.065 79.7459C199.365 83.2512 200.132 92.0119 194.536 96.558C190.205 100.077 189.51 106.424 192.976 110.797C197.456 116.446 194.811 124.833 187.901 126.892C182.554 128.485 179.482 134.084 181.012 139.45C182.988 146.384 177.335 153.12 170.164 152.378C164.614 151.804 159.634 155.8 158.993 161.344C158.166 168.506 150.365 172.566 144.024 169.136C139.115 166.481 132.985 168.268 130.272 173.144C126.767 179.445 118.006 180.211 113.46 174.615C109.941 170.284 103.594 169.589 99.2213 173.056C93.5717 177.535 85.1846 174.891 83.126 167.981C81.5327 162.633 75.9343 159.562 70.5679 161.092C63.6343 163.068 56.8976 157.415 57.6399 150.244C58.2144 144.693 54.2175 139.713 48.6743 139.073C41.5121 138.245 37.4515 130.445 40.8817 124.103C43.5365 119.195 41.7496 113.065 36.8735 110.352C30.5732 106.846 29.8067 98.0857 35.4026 93.5395C39.7336 90.021 40.4288 83.6734 36.962 79.3009C32.4827 73.6514 35.1271 65.2642 42.0368 63.2056C47.3846 61.6123 50.456 56.0139 48.9264 50.6476C46.95 43.714 52.6028 36.9772 59.7743 37.7195C65.3247 38.2941 70.3047 34.2972 70.9452 28.754C71.7727 21.5918 79.5732 17.5311 85.9147 20.9613C90.8228 23.6162 96.9533 21.8293 99.6662 16.9531C103.172 10.6528 111.932 9.88635 116.478 15.4822C119.997 19.8132 126.345 20.5084 130.717 17.0416C136.367 12.5623 144.754 15.2068 146.812 22.1165C148.406 27.4642 154.004 30.5356 159.37 29.006Z" fill="url(#paint0_linear_8_11)"/>
</g>
<defs>
<filter id="filter0_d_8_11" x="0.596953" y="0.761742" width="219.615" height="219.615" filterUnits="userSpaceOnUse" color-interpolation-filters="sRGB">
<feFlood flood-opacity="0" result="BackgroundImageFix"/>
<feColorMatrix in="SourceAlpha" type="matrix" values="0 0 0 0 0 0 0 0 0 0 0 0 0 0 0 0 0 0 127 0" result="hardAlpha"/>
<feOffset dx="-4.5648" dy="15.5203"/>
<feGaussianBlur stdDeviation="13.2379"/>
<feComposite in2="hardAlpha" operator="out"/>
<feColorMatrix type="matrix" values="0 0 0 0 0.0775104 0 0 0 0 0.241623 0 0 0 0 0.157958 0 0 0 0.46 0"/>
<feBlend mode="normal" in2="BackgroundImageFix" result="effect1_dropShadow_8_11"/>
<feBlend mode="normal" in="SourceGraphic" in2="effect1_dropShadow_8_11" result="shape"/>
</filter>
<linearGradient id="paint0_linear_8_11" x1="166.996" y1="175.55" x2="55.9079" y2="91.2258" gradientUnits="userSpaceOnUse">
<stop stop-color="#237249"/>
<stop offset="1" stop-color="#35C66B"/>
</linearGradient>
</defs>
</svg>
